<svg xmlns="http://www.w3.org/2000/svg" width="432.575" height="420.051" viewBox="0 0 432.575 420.051">
  <g id="rect" transform="translate(-478.808 -262.277)">
    <g id="Path_37" data-name="Path 37" transform="matrix(0.616, 0.788, -0.788, 0.616, 736.419, 272)" fill="#3d3333">
      <path d="M -5.608839988708496 226.3628387451172 L 26.78518676757813 68.51218414306641 L 174.1274719238281 -3.355804920196533 L 145.4570465087891 161.0662078857422 L -5.608839988708496 226.3628387451172 Z" stroke="none"/>
      <path d="M 172.145263671875 -0.7200469970703125 L 28.10618591308594 69.53675842285156 L -3.560531616210938 223.8433685302734 L 144.1184539794922 160.0106353759766 L 172.145263671875 -0.7200469970703125 M 176.1097259521484 -5.991607666015625 L 146.7956085205078 162.1217041015625 L -7.657135009765625 228.88232421875 L 25.46420288085938 67.48757934570313 L 176.1097259521484 -5.991607666015625 Z" stroke="none" fill="#f90b0b"/>
    </g>
    <g id="Path_38" data-name="Path 38" transform="matrix(0.616, 0.788, -0.788, 0.616, 736.419, 272)" fill="#3d3333">
      <path d="M -5.608839988708496 226.3628387451172 L 26.78518676757813 68.51218414306641 L 174.1274719238281 -3.355804920196533 L 145.4570465087891 161.0662078857422 L -5.608839988708496 226.3628387451172 Z" stroke="none"/>
      <path d="M 172.145263671875 -0.7200469970703125 L 28.10618591308594 69.53675842285156 L -3.560531616210938 223.8433685302734 L 144.1184539794922 160.0106353759766 L 172.145263671875 -0.7200469970703125 M 176.1097259521484 -5.991607666015625 L 146.7956085205078 162.1217041015625 L -7.657135009765625 228.88232421875 L 25.46420288085938 67.48757934570313 L 176.1097259521484 -5.991607666015625 Z" stroke="none" fill="#f90b0b"/>
    </g>
    <g id="Path_41" data-name="Path 41" transform="matrix(0.616, 0.788, -0.788, 0.616, 615.591, 417.38)" fill="#3d3333">
      <path d="M -0.8814890384674072 84.47273254394531 L 10.71305561065674 26.44526863098145 L 64.95458984375 0.3325043618679047 L 54.75019454956055 60.78762435913086 L -0.8814890384674072 84.47273254394531 Z" stroke="none"/>
      <path d="M 62.99296951293945 2.941627502441406 L 12.03744888305664 27.47244644165039 L 1.146400451660156 81.97907257080078 L 53.40767669677734 59.72891235351563 L 62.99296951293945 2.941627502441406 M 66.91620635986328 -2.276626586914063 L 56.09270858764648 61.84633255004883 L -2.909416198730469 86.96640777587891 L 9.388637542724609 25.4180908203125 L 66.91620635986328 -2.276626586914063 Z" stroke="none" fill="#f90b0b"/>
    </g>
    <g id="Path_51" data-name="Path 51" transform="matrix(0.616, 0.788, -0.788, 0.616, 801.104, 355.56)" fill="#3d3333">
      <path d="M -0.8814890384674072 84.47273254394531 L 10.71305561065674 26.44526863098145 L 64.95458984375 0.3325043618679047 L 54.75019454956055 60.78762435913086 L -0.8814890384674072 84.47273254394531 Z" stroke="none"/>
      <path d="M 62.99296951293945 2.941627502441406 L 12.03744888305664 27.47244644165039 L 1.146400451660156 81.97907257080078 L 53.40767669677734 59.72891235351563 L 62.99296951293945 2.941627502441406 M 66.91620635986328 -2.276626586914063 L 56.09270858764648 61.84633255004883 L -2.909416198730469 86.96640777587891 L 9.388637542724609 25.4180908203125 L 66.91620635986328 -2.276626586914063 Z" stroke="none" fill="#f90b0b"/>
    </g>
    <g id="Path_52" data-name="Path 52" transform="matrix(0.616, 0.788, -0.788, 0.616, 801.104, 355.56)" fill="#3d3333">
      <path d="M -0.8814890384674072 84.47273254394531 L 10.71305561065674 26.44526863098145 L 64.95458984375 0.3325043618679047 L 54.75019454956055 60.78762435913086 L -0.8814890384674072 84.47273254394531 Z" stroke="none"/>
      <path d="M 62.99296951293945 2.941627502441406 L 12.03744888305664 27.47244644165039 L 1.146400451660156 81.97907257080078 L 53.40767669677734 59.72891235351563 L 62.99296951293945 2.941627502441406 M 66.91620635986328 -2.276626586914063 L 56.09270858764648 61.84633255004883 L -2.909416198730469 86.96640777587891 L 9.388637542724609 25.4180908203125 L 66.91620635986328 -2.276626586914063 Z" stroke="none" fill="#f90b0b"/>
    </g>
    <g id="Path_39" data-name="Path 39" transform="matrix(0.616, 0.788, -0.788, 0.616, 614.693, 362.487)" fill="#3cacbe">
      <path d="M 115.200080871582 168.665283203125 L 0.1368228495121002 77.19674682617188 L 148.98486328125 -3.283504962921143 L 269.9392395019531 92.86804962158203 L 115.200080871582 168.665283203125 Z" stroke="none"/>
      <path d="M 148.826904296875 -1.492874145507813 L 2.848236083984375 77.43594360351563 L 115.3915100097656 166.9012145996094 L 267.1476745605469 92.56514739990234 L 148.826904296875 -1.492874145507813 M 149.1428527832031 -5.074142456054688 L 272.7307434082031 93.17093658447266 L 115.0086975097656 170.4293212890625 L -2.5745849609375 76.95755004882813 L 149.1428527832031 -5.074142456054688 Z" stroke="none" fill="#f90b0b"/>
    </g>
    <g id="Path_40" data-name="Path 40" transform="matrix(0.616, 0.788, -0.788, 0.616, 614.693, 362.487)" fill="#3cacbe">
      <path d="M 115.200080871582 168.665283203125 L 0.1368228495121002 77.19674682617188 L 148.98486328125 -3.283504962921143 L 269.9392395019531 92.86804962158203 L 115.200080871582 168.665283203125 Z" stroke="none"/>
      <path d="M 148.826904296875 -1.492874145507813 L 2.848236083984375 77.43594360351563 L 115.3915100097656 166.9012145996094 L 267.1476745605469 92.56514739990234 L 148.826904296875 -1.492874145507813 M 149.1428527832031 -5.074142456054688 L 272.7307434082031 93.17093658447266 L 115.0086975097656 170.4293212890625 L -2.5745849609375 76.95755004882813 L 149.1428527832031 -5.074142456054688 Z" stroke="none" fill="#f90b0b"/>
    </g>
    <g id="Path_44" data-name="Path 44" transform="matrix(0.616, 0.788, -0.788, 0.616, 569.162, 451.896)" fill="#3cacbe">
      <path d="M 44.49016189575195 63.23514938354492 L 1.750075221061707 29.26689720153809 L 56.78476333618164 -0.1500558853149414 L 101.7213897705078 35.56392288208008 L 44.49016189575195 63.23514938354492 Z" stroke="none"/>
      <path d="M 56.62284851074219 1.637310028076172 L 4.471000671386719 29.51333236694336 L 44.68568420410156 61.47448348999023 L 98.91901397705078 35.25273895263672 L 56.62284851074219 1.637310028076172 M 56.9466552734375 -1.937431335449219 L 104.5237731933594 35.87509918212891 L 44.29465484619141 64.99579620361328 L -0.9708633422851563 29.02043151855469 L 56.9466552734375 -1.937431335449219 Z" stroke="none" fill="#f90b0b"/>
    </g>
    <g id="Path_42" data-name="Path 42" transform="matrix(0.616, 0.788, -0.788, 0.616, 611.917, 403.472)" fill="#3cacbe">
      <path d="M 92.38356018066406 120.3323593139648 L 1.169192433357239 49.06787490844727 L 103.6628112792969 -1.76954984664917 L 192.5501403808594 67.67685699462891 L 92.38356018066406 120.3323593139648 Z" stroke="none"/>
      <path d="M 103.4833984375 -0.00620269775390625 L 3.970321655273438 49.35285186767578 L 92.54335784912109 118.5537261962891 L 189.797119140625 67.429443359375 L 103.4833984375 -0.00620269775390625 M 103.8421936035156 -3.532928466796875 L 195.30322265625 67.92424011230469 L 92.22369384765625 122.1110229492188 L -1.632003784179688 48.78288269042969 L 103.8421936035156 -3.532928466796875 Z" stroke="none" fill="#f90b0b"/>
    </g>
    <g id="Path_47" data-name="Path 47" transform="matrix(0.616, 0.788, -0.788, 0.616, 754.675, 390.076)" fill="#3cacbe">
      <path d="M 44.49016189575195 63.23514938354492 L 1.750075221061707 29.26689720153809 L 56.78476333618164 -0.1500558853149414 L 101.7213897705078 35.56392288208008 L 44.49016189575195 63.23514938354492 Z" stroke="none"/>
      <path d="M 56.62284851074219 1.637310028076172 L 4.471000671386719 29.51333236694336 L 44.68568420410156 61.47448348999023 L 98.91901397705078 35.25273895263672 L 56.62284851074219 1.637310028076172 M 56.9466552734375 -1.937431335449219 L 104.5237731933594 35.87509918212891 L 44.29465484619141 64.99579620361328 L -0.9708633422851563 29.02043151855469 L 56.9466552734375 -1.937431335449219 Z" stroke="none" fill="#f90b0b"/>
    </g>
    <g id="Path_48" data-name="Path 48" transform="matrix(0.616, 0.788, -0.788, 0.616, 754.675, 390.076)" fill="#3cacbe">
      <path d="M 44.49016189575195 63.23514938354492 L 1.750075221061707 29.26689720153809 L 56.78476333618164 -0.1500558853149414 L 101.7213897705078 35.56392288208008 L 44.49016189575195 63.23514938354492 Z" stroke="none"/>
      <path d="M 56.62284851074219 1.637310028076172 L 4.471000671386719 29.51333236694336 L 44.68568420410156 61.47448348999023 L 98.91901397705078 35.25273895263672 L 56.62284851074219 1.637310028076172 M 56.9466552734375 -1.937431335449219 L 104.5237731933594 35.87509918212891 L 44.29465484619141 64.99579620361328 L -0.9708633422851563 29.02043151855469 L 56.9466552734375 -1.937431335449219 Z" stroke="none" fill="#f90b0b"/>
    </g>
    <g id="Path_45" data-name="Path 45" transform="matrix(0.616, 0.788, -0.788, 0.616, 833.161, 386.488)" fill="#8e7d44">
      <path d="M 117.4546737670898 249.6981353759766 L -3.451596260070801 151.5425109863281 L 24.4720630645752 1.955437302589417 L 124.5011367797852 83.16224670410156 L 117.4546737670898 249.6981353759766 Z" stroke="none"/>
      <path d="M 116.0822525024414 246.6519012451172 L 122.9706115722656 83.85179138183594 L 25.48398780822754 4.70897912979126 L -1.81331467628479 150.9404602050781 L 116.0822525024414 246.6519012451172 M 118.8271484375 252.7444610595703 L -5.089922428131104 152.1445770263672 L 23.46018409729004 -0.7981768846511841 L 126.0316467285156 82.47267913818359 L 118.8271484375 252.7444610595703 Z" stroke="none" fill="#f90b0b"/>
    </g>
    <g id="Path_46" data-name="Path 46" transform="matrix(0.616, 0.788, -0.788, 0.616, 833.161, 386.488)" fill="#8e7d44">
      <path d="M 117.4546737670898 249.6981353759766 L -3.451596260070801 151.5425109863281 L 24.4720630645752 1.955437302589417 L 124.5011367797852 83.16224670410156 L 117.4546737670898 249.6981353759766 Z" stroke="none"/>
      <path d="M 116.0822525024414 246.6519012451172 L 122.9706115722656 83.85179138183594 L 25.48398780822754 4.70897912979126 L -1.81331467628479 150.9404602050781 L 116.0822525024414 246.6519012451172 M 118.8271484375 252.7444610595703 L -5.089922428131104 152.1445770263672 L 23.46018409729004 -0.7981768846511841 L 126.0316467285156 82.47267913818359 L 118.8271484375 252.7444610595703 Z" stroke="none" fill="#f90b0b"/>
    </g>
    <g id="Path_43" data-name="Path 43" transform="translate(610.943 441.215) rotate(49)" fill="#030303">
      <path d="M 61.73947906494141 79.14825439453125 L 1.822582125663757 29.02667236328125 L 68.11985015869141 -0.6058297157287598 L 126.6977310180664 50.31514358520508 L 61.73947906494141 79.14825439453125 Z" stroke="none"/>
      <path d="M 67.85813903808594 1.154144287109375 L 4.626380920410156 29.41647338867188 L 61.98509979248047 77.39807891845703 L 123.9344253540039 49.90055084228516 L 67.85813903808594 1.154144287109375 M 68.38159942626953 -2.3658447265625 L 129.4610137939453 50.72971343994141 L 61.49383544921875 80.89839172363281 L -0.9812469482421875 28.6368522644043 L 68.38159942626953 -2.3658447265625 Z" stroke="none" fill="#f90b0b"/>
    </g>
    <g id="Path_53" data-name="Path 53" transform="matrix(0.616, 0.788, -0.788, 0.616, 838.048, 399.27)" fill="#4fc139">
      <path d="M 44.37678146362305 93.6910400390625 L -0.3074975609779358 57.43277740478516 L 9.649724960327148 2.469087362289429 L 46.59039688110352 32.44393920898438 L 44.37678146362305 93.6910400390625 Z" stroke="none"/>
      <path d="M 42.98639297485352 90.63114166259766 L 45.06436157226563 33.13736343383789 L 10.67367362976074 5.231655120849609 L 1.326644539833069 56.82708358764648 L 42.98639297485352 90.63114166259766 M 45.76716995239258 96.75093841552734 L -1.941643834114075 58.03847503662109 L 8.625771522521973 -0.2934631109237671 L 48.11644744873047 31.75053596496582 L 45.76716995239258 96.75093841552734 Z" stroke="none" fill="#f90b0b"/>
    </g>
    <g id="Path_54" data-name="Path 54" transform="matrix(0.616, 0.788, -0.788, 0.616, 838.048, 399.27)" fill="#4fc139">
      <path d="M 44.37678146362305 93.6910400390625 L -0.3074975609779358 57.43277740478516 L 9.649724960327148 2.469087362289429 L 46.59039688110352 32.44393920898438 L 44.37678146362305 93.6910400390625 Z" stroke="none"/>
      <path d="M 42.98639297485352 90.63114166259766 L 45.06436157226563 33.13736343383789 L 10.67367362976074 5.231655120849609 L 1.326644539833069 56.82708358764648 L 42.98639297485352 90.63114166259766 M 45.76716995239258 96.75093841552734 L -1.941643834114075 58.03847503662109 L 8.625771522521973 -0.2934631109237671 L 48.11644744873047 31.75053596496582 L 45.76716995239258 96.75093841552734 Z" stroke="none" fill="#f90b0b"/>
    </g>
    <g id="Path_49" data-name="Path 49" transform="matrix(0.616, 0.788, -0.788, 0.616, 754.787, 448.323)" fill="#414558">
      <path d="M 44.37678146362305 93.6910400390625 L -0.3074975609779358 57.43277740478516 L 9.649724960327148 2.469087362289429 L 46.59039688110352 32.44393920898438 L 44.37678146362305 93.6910400390625 Z" stroke="none"/>
      <path d="M 42.98639297485352 90.63114166259766 L 45.06436157226563 33.13736343383789 L 10.67367362976074 5.231655120849609 L 1.326644539833069 56.82708358764648 L 42.98639297485352 90.63114166259766 M 45.76716995239258 96.75093841552734 L -1.941643834114075 58.03847503662109 L 8.625771522521973 -0.2934631109237671 L 48.11644744873047 31.75053596496582 L 45.76716995239258 96.75093841552734 Z" stroke="none" fill="#f90b0b"/>
    </g>
    <g id="Path_50" data-name="Path 50" transform="matrix(0.616, 0.788, -0.788, 0.616, 756.362, 538.561)" fill="#0d0d0c">
      <path d="M 44.31163787841797 95.63953399658203 L -0.4250634014606476 59.33872985839844 L 5.905838012695313 2.6748948097229 L 46.52460098266602 34.40974807739258 L 44.31163787841797 95.63953399658203 Z" stroke="none"/>
      <path d="M 42.92123794555664 92.57963562011719 L 44.9979248046875 35.12051391601563 L 7.098392009735107 5.510156631469727 L 1.156680941581726 58.69052886962891 L 42.92123794555664 92.57963562011719 M 45.70201873779297 98.69943237304688 L -2.006827354431152 59.98694229125977 L 4.713280200958252 -0.1603496074676514 L 48.05126571655273 33.69898986816406 L 45.70201873779297 98.69943237304688 Z" stroke="none" fill="#f90b0b"/>
    </g>
    <g id="Path_55" data-name="Path 55" transform="matrix(0.616, 0.788, -0.788, 0.616, 843.276, 474.725)" fill="#37d4ce">
      <path d="M 45.38569641113281 95.11055755615234 L -0.4230771660804749 59.3207893371582 L 5.905826091766357 2.674890518188477 L 46.53732299804688 34.41968536376953 L 45.38569641113281 95.11055755615234 Z" stroke="none"/>
      <path d="M 43.94293975830078 92.07981872558594 L 45.02337265014648 35.14039611816406 L 7.098392009735107 5.510158061981201 L 1.16069221496582 58.65462875366211 L 43.94293975830078 92.07981872558594 M 46.82846450805664 98.14129638671875 L -2.006827354431152 59.98694229125977 L 4.713280200958252 -0.1603483110666275 L 48.05126571655273 33.69898986816406 L 46.82846450805664 98.14129638671875 Z" stroke="none" fill="#f90b0b"/>
    </g>
  </g>
</svg>
